<svg width="65" height="55" viewBox="0 0 65 55" fill="none" xmlns="http://www.w3.org/2000/svg">
<path d="M41.4842 10.7056C44.4283 10.7056 46.837 8.29685 46.837 5.3528C46.837 2.40876 44.4283 0 41.4842 0C38.5402 0 36.1314 2.40876 36.1314 5.3528C36.1314 8.29685 38.5402 10.7056 41.4842 10.7056ZM13.382 28.1022C5.88809 28.1022 0 33.9903 0 41.4842C0 48.9782 5.88809 54.8662 13.382 54.8662C20.8759 54.8662 26.764 48.9782 26.764 41.4842C26.764 33.9903 20.8759 28.1022 13.382 28.1022ZM13.382 50.8516C8.29685 50.8516 4.0146 46.5694 4.0146 41.4842C4.0146 36.3991 8.29685 32.1168 13.382 32.1168C18.4672 32.1168 22.7494 36.3991 22.7494 41.4842C22.7494 46.5694 18.4672 50.8516 13.382 50.8516ZM28.9051 24.0876L35.3285 17.6643L37.4696 19.8054C40.949 23.2847 45.4988 25.4258 51.1193 25.4258V20.073C47.1047 20.073 43.893 18.4672 41.4842 16.0584L36.3991 10.9732C35.0609 9.90269 33.7227 9.36741 32.1168 9.36741C30.511 9.36741 29.1728 9.90269 28.3699 10.9732L20.8759 18.4672C19.8054 19.5377 19.2701 20.8759 19.2701 22.2141C19.2701 23.82 19.8054 25.1582 20.8759 25.9611L29.4404 33.455V46.837H34.7932V30.2433L28.9051 24.0876ZM50.8516 28.1022C43.3577 28.1022 37.4696 33.9903 37.4696 41.4842C37.4696 48.9782 43.3577 54.8662 50.8516 54.8662C58.3456 54.8662 64.2337 48.9782 64.2337 41.4842C64.2337 33.9903 58.3456 28.1022 50.8516 28.1022ZM50.8516 50.8516C45.7665 50.8516 41.4842 46.5694 41.4842 41.4842C41.4842 36.3991 45.7665 32.1168 50.8516 32.1168C55.9368 32.1168 60.2191 36.3991 60.2191 41.4842C60.2191 46.5694 55.9368 50.8516 50.8516 50.8516Z" fill="white"/>
</svg>
