<svg width="20" height="20" viewBox="0 0 20 20" fill="none" xmlns="http://www.w3.org/2000/svg">
<path d="M9.99687 12.9959C9.44705 12.9959 8.99719 13.4458 8.99719 13.9956V16.9947C8.99719 17.5445 8.54733 17.9944 7.9975 17.9944H2.99906C2.44923 17.9944 1.99937 17.5445 1.99937 16.9947V2.99906C1.99937 2.44923 2.44923 1.99937 2.99906 1.99937H7.9975C8.54733 1.99937 8.99719 2.44923 8.99719 2.99906V5.99813C8.99719 6.54795 9.44705 6.99781 9.99687 6.99781C10.5467 6.99781 10.9966 6.54795 10.9966 5.99813V2.99906C10.9966 1.34958 9.64698 0 7.9975 0H2.99906C1.34958 0 0 1.34958 0 2.99906V16.9947C0 18.6442 1.34958 19.9937 2.99906 19.9937H7.9975C9.64698 19.9937 10.9966 18.6442 10.9966 16.9947V13.9956C10.9966 13.4458 10.5467 12.9959 9.99687 12.9959Z" fill="white"/>
<path d="M19.7941 10.5967C19.8066 10.5842 19.8191 10.5717 19.8316 10.5592C19.8316 10.5592 19.8316 10.5592 19.8316 10.5467C19.8441 10.5217 19.8566 10.4967 19.8691 10.4717C19.8816 10.4342 19.9066 10.4092 19.919 10.3717C19.9315 10.3343 19.944 10.3093 19.9565 10.2718C19.969 10.2468 19.9815 10.2218 19.9815 10.1843C20.0065 10.0593 20.0065 9.92189 19.9815 9.79693C19.9815 9.77193 19.969 9.74694 19.9565 9.70945C19.944 9.67197 19.944 9.64697 19.9315 9.60949C19.919 9.572 19.8941 9.54701 19.8816 9.50952C19.8691 9.48453 19.8566 9.45953 19.8441 9.43454C19.8066 9.38456 19.7691 9.32208 19.7191 9.28459L15.7204 5.28584C15.333 4.89846 14.6957 4.89846 14.3083 5.28584C13.9209 5.67322 13.9209 6.31052 14.3083 6.6979L16.5951 8.98468H4.99871C4.44888 8.98468 3.99902 9.43454 3.99902 9.98437C3.99902 10.5342 4.44888 10.9841 4.99871 10.9841H16.5826L14.2958 13.2708C13.9084 13.6582 13.9084 14.2955 14.2958 14.6829C14.4957 14.8828 14.7457 14.9703 15.0081 14.9703C15.2705 14.9703 15.5204 14.8703 15.7204 14.6829L19.7191 10.6842C19.7316 10.6717 19.7566 10.6342 19.7941 10.5967Z" fill="white"/>
</svg>
