<svg width="59" height="59" viewBox="0 0 59 59" fill="none" xmlns="http://www.w3.org/2000/svg">
<path d="M29.5 0C13.216 0 0 13.216 0 29.5C0 45.784 13.216 59 29.5 59C45.784 59 59 45.784 59 29.5C59 13.216 45.784 0 29.5 0ZM29.5 8.85C34.397 8.85 38.35 12.803 38.35 17.7C38.35 22.597 34.397 26.55 29.5 26.55C24.603 26.55 20.65 22.597 20.65 17.7C20.65 12.803 24.603 8.85 29.5 8.85ZM29.5 50.74C22.125 50.74 15.6055 46.964 11.8 41.241C11.8885 35.3705 23.6 32.155 29.5 32.155C35.3705 32.155 47.1115 35.3705 47.2 41.241C43.3945 46.964 36.875 50.74 29.5 50.74Z" fill="white"/>
</svg>
